<svg width="108" height="47" viewBox="0 0 108 47" fill="none" xmlns="http://www.w3.org/2000/svg">
<path d="M0.3125 35V0.734375H7.57812V29H21.4766V35H0.3125ZM50.7031 21.8516C50.7031 24.0391 50.4062 25.9766 49.8125 27.6641C49.2344 29.3516 48.3828 30.7812 47.2578 31.9531C46.1484 33.1094 44.8047 33.9844 43.2266 34.5781C41.6641 35.1719 39.8984 35.4688 37.9297 35.4688C36.0859 35.4688 34.3906 35.1719 32.8438 34.5781C31.3125 33.9844 29.9766 33.1094 28.8359 31.9531C27.7109 30.7812 26.8359 29.3516 26.2109 27.6641C25.6016 25.9766 25.2969 24.0391 25.2969 21.8516C25.2969 18.9453 25.8125 16.4844 26.8438 14.4688C27.875 12.4531 29.3438 10.9219 31.25 9.875C33.1562 8.82812 35.4297 8.30469 38.0703 8.30469C40.5234 8.30469 42.6953 8.82812 44.5859 9.875C46.4922 10.9219 47.9844 12.4531 49.0625 14.4688C50.1562 16.4844 50.7031 18.9453 50.7031 21.8516ZM32.5859 21.8516C32.5859 23.5703 32.7734 25.0156 33.1484 26.1875C33.5234 27.3594 34.1094 28.2422 34.9062 28.8359C35.7031 29.4297 36.7422 29.7266 38.0234 29.7266C39.2891 29.7266 40.3125 29.4297 41.0938 28.8359C41.8906 28.2422 42.4688 27.3594 42.8281 26.1875C43.2031 25.0156 43.3906 23.5703 43.3906 21.8516C43.3906 20.1172 43.2031 18.6797 42.8281 17.5391C42.4688 16.3828 41.8906 15.5156 41.0938 14.9375C40.2969 14.3594 39.2578 14.0703 37.9766 14.0703C36.0859 14.0703 34.7109 14.7188 33.8516 16.0156C33.0078 17.3125 32.5859 19.2578 32.5859 21.8516ZM64.2734 46.5312C60.6172 46.5312 57.8203 45.8906 55.8828 44.6094C53.9609 43.3438 53 41.5625 53 39.2656C53 37.6875 53.4922 36.3672 54.4766 35.3047C55.4609 34.2422 56.9062 33.4844 58.8125 33.0312C58.0781 32.7188 57.4375 32.2109 56.8906 31.5078C56.3438 30.7891 56.0703 30.0312 56.0703 29.2344C56.0703 28.2344 56.3594 27.4062 56.9375 26.75C57.5156 26.0781 58.3516 25.4219 59.4453 24.7812C58.0703 24.1875 56.9766 23.2344 56.1641 21.9219C55.3672 20.6094 54.9688 19.0625 54.9688 17.2812C54.9688 15.375 55.3828 13.7578 56.2109 12.4297C57.0547 11.0859 58.2734 10.0625 59.8672 9.35938C61.4766 8.65625 63.4297 8.30469 65.7266 8.30469C66.2109 8.30469 66.7734 8.33594 67.4141 8.39844C68.0547 8.46094 68.6406 8.53125 69.1719 8.60938C69.7188 8.6875 70.0859 8.75 70.2734 8.79688H79.4141V12.4297L75.3125 13.4844C75.6875 14.0625 75.9688 14.6797 76.1562 15.3359C76.3438 15.9922 76.4375 16.6875 76.4375 17.4219C76.4375 20.2344 75.4531 22.4297 73.4844 24.0078C71.5312 25.5703 68.8125 26.3516 65.3281 26.3516C64.5 26.3047 63.7188 26.2422 62.9844 26.1641C62.625 26.4453 62.3516 26.7422 62.1641 27.0547C61.9766 27.3672 61.8828 27.6953 61.8828 28.0391C61.8828 28.3828 62.0234 28.6719 62.3047 28.9062C62.6016 29.125 63.0391 29.2969 63.6172 29.4219C64.2109 29.5312 64.9453 29.5859 65.8203 29.5859H70.2734C73.1484 29.5859 75.3359 30.2031 76.8359 31.4375C78.3516 32.6719 79.1094 34.4844 79.1094 36.875C79.1094 39.9375 77.8281 42.3125 75.2656 44C72.7188 45.6875 69.0547 46.5312 64.2734 46.5312ZM64.5781 41.8672C66.2812 41.8672 67.7422 41.7031 68.9609 41.375C70.1953 41.0625 71.1406 40.6094 71.7969 40.0156C72.4531 39.4375 72.7812 38.7422 72.7812 37.9297C72.7812 37.2734 72.5859 36.75 72.1953 36.3594C71.8203 35.9844 71.2422 35.7188 70.4609 35.5625C69.6953 35.4062 68.7109 35.3281 67.5078 35.3281H63.8047C62.9297 35.3281 62.1406 35.4688 61.4375 35.75C60.75 36.0312 60.2031 36.4219 59.7969 36.9219C59.3906 37.4375 59.1875 38.0312 59.1875 38.7031C59.1875 39.6875 59.6562 40.4609 60.5938 41.0234C61.5469 41.5859 62.875 41.8672 64.5781 41.8672ZM65.7266 21.9922C67.0703 21.9922 68.0547 21.5781 68.6797 20.75C69.3047 19.9219 69.6172 18.7969 69.6172 17.375C69.6172 15.7969 69.2891 14.6172 68.6328 13.8359C67.9922 13.0391 67.0234 12.6406 65.7266 12.6406C64.4141 12.6406 63.4297 13.0391 62.7734 13.8359C62.1172 14.6172 61.7891 15.7969 61.7891 17.375C61.7891 18.7969 62.1094 19.9219 62.75 20.75C63.4062 21.5781 64.3984 21.9922 65.7266 21.9922ZM107.562 21.8516C107.562 24.0391 107.266 25.9766 106.672 27.6641C106.094 29.3516 105.242 30.7812 104.117 31.9531C103.008 33.1094 101.664 33.9844 100.086 34.5781C98.5234 35.1719 96.7578 35.4688 94.7891 35.4688C92.9453 35.4688 91.25 35.1719 89.7031 34.5781C88.1719 33.9844 86.8359 33.1094 85.6953 31.9531C84.5703 30.7812 83.6953 29.3516 83.0703 27.6641C82.4609 25.9766 82.1562 24.0391 82.1562 21.8516C82.1562 18.9453 82.6719 16.4844 83.7031 14.4688C84.7344 12.4531 86.2031 10.9219 88.1094 9.875C90.0156 8.82812 92.2891 8.30469 94.9297 8.30469C97.3828 8.30469 99.5547 8.82812 101.445 9.875C103.352 10.9219 104.844 12.4531 105.922 14.4688C107.016 16.4844 107.562 18.9453 107.562 21.8516ZM89.4453 21.8516C89.4453 23.5703 89.6328 25.0156 90.0078 26.1875C90.3828 27.3594 90.9688 28.2422 91.7656 28.8359C92.5625 29.4297 93.6016 29.7266 94.8828 29.7266C96.1484 29.7266 97.1719 29.4297 97.9531 28.8359C98.75 28.2422 99.3281 27.3594 99.6875 26.1875C100.062 25.0156 100.25 23.5703 100.25 21.8516C100.25 20.1172 100.062 18.6797 99.6875 17.5391C99.3281 16.3828 98.75 15.5156 97.9531 14.9375C97.1562 14.3594 96.1172 14.0703 94.8359 14.0703C92.9453 14.0703 91.5703 14.7188 90.7109 16.0156C89.8672 17.3125 89.4453 19.2578 89.4453 21.8516Z" fill="#3B3B3B"/>
</svg>
